<svg width="549" height="107" viewBox="0 0 549 107" fill="none" xmlns="http://www.w3.org/2000/svg">
<g clip-path="url(#clip0_2050_706)">
<path d="M122.296 0C115.636 0 108.916 0 102.256 0V59.334C108.916 59.334 115.636 59.334 122.296 59.334C143.063 59.334 152.75 44.0767 152.387 29.001C152.084 14.4097 142.397 0 122.296 0ZM122.296 4.29869C139.43 4.29869 147.604 16.5893 147.846 29.001C148.088 41.7154 139.975 54.9142 122.296 54.9142H106.797V4.29869H122.296ZM182.659 59.9395C189.38 59.9395 196.645 57.2149 200.702 51.887L197.735 49.5257C194.647 53.6428 188.169 55.883 182.659 55.883C174.002 55.883 166.494 50.1917 165.646 40.3229H203.366C204.94 23.9758 194.466 16.7709 182.659 16.7709C170.914 16.7709 161.408 25.8527 161.408 38.3855C161.408 51.7054 170.914 59.9395 182.659 59.9395ZM165.646 36.6902C166.555 26.4581 174.002 20.5853 182.659 20.5853C192.77 20.5853 199.552 26.337 199.612 36.6902H165.646ZM227.705 59.334H232.246L249.804 17.4369H245.202L229.945 54.4904L214.688 17.4369H210.147L227.705 59.334ZM327.786 59.334V0H323.184V28.2139H285.404V0H280.803V59.334H285.404V32.3915H323.184V59.334H327.786ZM377.856 59.334V17.3764H373.739V40.6862C373.739 49.3441 367.685 55.8829 359.087 55.9435C350.006 56.004 344.133 50.9183 344.133 41.4733V17.3764H340.016V41.5338C340.016 53.1584 347.705 60 358.906 60C364.718 59.9395 370.591 57.5782 373.8 51.7659V59.334H377.856ZM407.705 20.7669C417.392 20.7669 424.839 27.9112 424.839 38.3249C424.839 48.7387 417.574 55.9435 407.705 55.9435C398.32 55.9435 390.571 50.0101 390.571 38.3855C390.571 26.6398 398.32 20.7669 407.705 20.7669ZM424.9 0V26.6398C421.509 19.8587 414.728 16.7709 407.523 16.7709C395.838 16.7709 386.514 24.5812 386.514 38.3855C386.514 52.3108 395.778 60 407.463 60C414.607 60 421.449 56.4279 424.9 50.0706V59.334H429.017V0H424.9ZM459.834 20.7669C469.521 20.7669 476.968 27.9112 476.968 38.3249C476.968 48.7387 469.703 55.9435 459.834 55.9435C450.45 55.9435 442.7 50.0101 442.7 38.3855C442.7 26.6398 450.45 20.7669 459.834 20.7669ZM477.029 0V26.6398C473.638 19.8587 466.857 16.7709 459.652 16.7709C447.967 16.7709 438.643 24.5812 438.643 38.3855C438.643 52.3108 447.907 60 459.592 60C466.736 60 473.578 56.4279 477.029 50.0706V59.334H481.146V0H477.029ZM493.073 0V59.334H497.251V0H493.073ZM527.765 59.9395C534.425 59.9395 541.751 57.2149 545.808 51.887L542.841 49.5257C539.693 53.6428 533.275 55.883 527.765 55.883C519.108 55.883 511.539 50.1917 510.692 40.3229H548.411C550.046 23.9758 539.511 16.7709 527.765 16.7709C515.959 16.7709 506.454 25.8527 506.454 38.3855C506.454 51.7054 515.959 59.9395 527.765 59.9395ZM510.692 36.6902C511.661 26.4581 519.108 20.5853 527.765 20.5853C537.816 20.5853 544.597 26.337 544.718 36.6902H510.692Z" fill="white"/>
<path d="M0.855469 11.2702L19.3508 107.152L12.9691 42.9768L44.5094 40.9206L44.4507 30.1796L56.898 0.847656L45.0224 20.3853L0.855469 11.2702Z" fill="#E96D77"/>
<path d="M51.2908 59.0444L56.8987 0.855469L47.4 44.0193L26.0854 45.155L27.7917 67.3933L19.3516 107.152L32.4552 63.7894L51.2908 59.0444Z" fill="#E96D77"/>
<path d="M54.9979 72.775L55.5945 61.4146L38.2284 65.4955L38.1936 78.3166L19.3516 107.152L42.9136 77.1385L54.9979 72.775ZM58.1616 67.5713L74.291 62.4296L75.931 48.8097L58.6517 51.0866L58.1616 67.5713ZM65.0726 48.1261L77.0145 46.5861L78.7328 35.4159L69.9524 35.0105L56.8987 0.847656L66.0605 34.5029L65.0726 48.1261Z" fill="#E96D77"/>
<path d="M81.7473 33.7715L83.1123 23.4403L72.7398 20.5124L56.8984 0.847656L72.6387 25.2324L72.1801 32.8401L81.7473 33.7715Z" fill="#E96D77"/>
<path d="M102.91 69.0715H102.256V69.22C102.256 69.3025 102.311 69.3465 102.41 69.3575H102.487C102.525 69.3575 102.58 69.363 102.657 69.363C102.734 69.363 102.817 69.374 102.91 69.374V74.2081C102.817 74.2081 102.734 74.2136 102.657 74.2136C102.58 74.2136 102.525 74.2246 102.487 74.2246H102.41C102.311 74.2301 102.261 74.2741 102.261 74.3621V74.5161H102.91H106.177V74.1861V73.3831H105.985C105.875 73.3831 105.831 73.4546 105.82 73.5756C105.82 73.5921 105.814 73.6196 105.814 73.6746C105.814 73.7296 105.814 73.8066 105.803 73.9221C105.798 74.0376 105.792 74.1146 105.792 74.1861H103.301V71.9148H105.473V71.5958H103.301V69.396H105.792C105.803 69.7314 105.82 69.9404 105.82 70.0119C105.831 70.1329 105.875 70.1934 105.985 70.1934H106.177V69.396V69.0715H102.91ZM117.424 69.3575C117.523 69.3465 117.578 69.3025 117.578 69.22V69.0715H116.929H116.654C116.615 69.0715 116.593 69.0715 116.571 69.077C116.544 69.088 116.533 69.11 116.505 69.143L114.366 72.9212C114.344 72.9597 114.327 72.9982 114.311 73.0367C114.3 73.0752 114.283 73.1192 114.267 73.1577C114.234 73.0752 114.206 72.9982 114.168 72.9267L111.963 69.143C111.941 69.11 111.924 69.088 111.902 69.077C111.88 69.0715 111.858 69.0715 111.82 69.0715H111.55H110.896V69.22C110.896 69.3025 110.951 69.3465 111.05 69.3575H111.127C111.165 69.3575 111.22 69.363 111.297 69.363C111.374 69.363 111.457 69.374 111.55 69.374V74.2081C111.457 74.2081 111.374 74.2136 111.297 74.2136C111.22 74.2136 111.165 74.2246 111.127 74.2246H111.05C110.951 74.2301 110.896 74.2741 110.896 74.3621V74.5161H111.55H111.886H112.557V74.3621C112.557 74.2741 112.502 74.2301 112.403 74.2246H112.326C112.287 74.2246 112.227 74.2136 112.15 74.2136C112.073 74.2136 111.979 74.2081 111.886 74.2081V69.8744C111.886 69.8029 111.886 69.7314 111.88 69.6544L114.08 73.4656C114.118 73.5371 114.173 73.5701 114.234 73.5701H114.3C114.366 73.5701 114.415 73.5371 114.454 73.4656L116.593 69.6544C116.582 69.7314 116.582 69.8029 116.582 69.8744V74.2081C116.494 74.2081 116.401 74.2136 116.324 74.2136C116.247 74.2136 116.186 74.2246 116.148 74.2246H116.071C115.966 74.2301 115.917 74.2741 115.917 74.3621V74.5161H116.582H116.929H117.578V74.3621C117.578 74.2741 117.523 74.2301 117.424 74.2246H117.352C117.314 74.2246 117.253 74.2136 117.176 74.2136C117.099 74.2136 117.022 74.2081 116.929 74.2081V69.374C117.022 69.374 117.099 69.363 117.176 69.363C117.253 69.363 117.314 69.3575 117.352 69.3575H117.424ZM125.59 69.4895C125.272 69.209 124.782 69.0715 124.144 69.0715H122.819H122.164V69.22C122.164 69.3025 122.219 69.3465 122.318 69.3575H122.395C122.434 69.3575 122.489 69.363 122.566 69.363C122.643 69.363 122.731 69.374 122.819 69.374V74.2081C122.731 74.2081 122.643 74.2136 122.566 74.2136C122.489 74.2136 122.434 74.2246 122.395 74.2246H122.318C122.219 74.2301 122.164 74.2741 122.164 74.3621V74.5161H122.819H123.215H123.858V74.3621C123.858 74.2741 123.809 74.2301 123.704 74.2246H123.638C123.6 74.2246 123.539 74.2136 123.462 74.2136C123.385 74.2136 123.308 74.2081 123.215 74.2081V72.3217H124.144C124.447 72.3217 124.716 72.2722 124.953 72.1952C125.195 72.1128 125.393 72.0028 125.563 71.8598C125.733 71.7113 125.86 71.5408 125.948 71.3428C126.041 71.1448 126.08 70.9248 126.08 70.6884C126.08 70.1714 125.915 69.7644 125.59 69.4895ZM125.579 71.2108C125.508 71.3758 125.409 71.5133 125.277 71.6288C125.145 71.7443 124.986 71.8378 124.793 71.9038C124.601 71.9753 124.386 72.0028 124.144 72.0028H123.215V69.3795H124.144C124.656 69.3795 125.041 69.495 125.299 69.7204C125.552 69.9404 125.684 70.2649 125.684 70.6829C125.684 70.8753 125.645 71.0513 125.579 71.2108ZM135.677 71.7883C135.677 71.3758 135.611 70.9908 135.484 70.6499C135.363 70.3089 135.187 70.0174 134.956 69.7699C134.725 69.528 134.456 69.3355 134.137 69.2035C133.823 69.0715 133.46 69 133.075 69C132.69 69 132.344 69.0715 132.03 69.2035C131.711 69.3355 131.437 69.528 131.206 69.7699C130.975 70.0174 130.799 70.3089 130.672 70.6499C130.551 70.9908 130.48 71.3758 130.48 71.7883C130.48 72.2117 130.551 72.5967 130.672 72.9377C130.799 73.2732 130.975 73.5701 131.206 73.8121C131.437 74.0596 131.711 74.2466 132.03 74.3786C132.344 74.5051 132.69 74.5766 133.075 74.5766C133.46 74.5766 133.823 74.5051 134.137 74.3786C134.456 74.2466 134.725 74.0596 134.956 73.8121C135.187 73.5701 135.363 73.2732 135.484 72.9377C135.611 72.5967 135.677 72.2117 135.677 71.7883ZM135.264 71.7883C135.264 72.1732 135.215 72.5142 135.11 72.8112C135 73.1137 134.857 73.3776 134.665 73.5811C134.472 73.7901 134.241 73.9606 133.972 74.0706C133.702 74.1751 133.405 74.2301 133.075 74.2301C132.751 74.2301 132.459 74.1751 132.19 74.0706C131.92 73.9606 131.689 73.7901 131.497 73.5811C131.305 73.3776 131.151 73.1137 131.046 72.8112C130.936 72.5142 130.892 72.1732 130.892 71.7883C130.892 71.4143 130.936 71.0678 131.046 70.7654C131.151 70.4629 131.305 70.2044 131.497 69.9954C131.689 69.7864 131.92 69.616 132.19 69.5115C132.459 69.4015 132.751 69.341 133.075 69.341C133.405 69.341 133.702 69.4015 133.972 69.5115C134.241 69.616 134.472 69.7864 134.665 69.9954C134.857 70.2044 135 70.4629 135.11 70.7654C135.215 71.0678 135.264 71.4143 135.264 71.7883ZM147.512 69.0715H147.215H147.187H146.379V69.22C146.379 69.3025 146.428 69.3465 146.527 69.3575H146.599C146.626 69.3575 146.681 69.363 146.758 69.363C146.835 69.363 146.912 69.374 147.006 69.374L145.697 73.6471C145.68 73.6966 145.664 73.7516 145.658 73.8121C145.647 73.8781 145.636 73.9276 145.62 73.9936C145.603 73.9276 145.598 73.8616 145.581 73.8066L145.532 73.6471L143.992 69.1705C143.981 69.143 143.965 69.11 143.943 69.0935C143.915 69.077 143.888 69.0715 143.849 69.0715H143.739C143.701 69.0715 143.673 69.077 143.646 69.1045C143.624 69.1265 143.602 69.143 143.596 69.1705L142.056 73.6526C142.04 73.7076 142.023 73.7516 142.007 73.8121C141.99 73.8671 141.985 73.9276 141.968 73.9991C141.963 73.9441 141.946 73.8836 141.93 73.8121C141.924 73.7516 141.908 73.6966 141.891 73.6471L140.582 69.374C140.676 69.374 140.753 69.363 140.824 69.363C140.89 69.363 140.94 69.3575 140.967 69.3575H141.028C141.132 69.3465 141.182 69.3025 141.182 69.22V69.0715H140.373H140.054H139.719V69.22C139.719 69.3025 139.774 69.3465 139.873 69.3575H139.928C139.95 69.3575 139.977 69.363 140.016 69.363C140.054 69.363 140.098 69.374 140.142 69.374L141.77 74.5161H142.117L143.734 69.7864C143.756 69.7259 143.772 69.6654 143.789 69.594C143.8 69.6654 143.816 69.7259 143.838 69.7864L145.449 74.5161H145.801L147.418 69.374C147.468 69.374 147.506 69.363 147.545 69.363C147.583 69.363 147.611 69.3575 147.638 69.3575H147.688C147.792 69.3465 147.836 69.3025 147.836 69.22V69.0715H147.512ZM152.918 69.0715H152.263V69.22C152.263 69.3025 152.318 69.3465 152.417 69.3575H152.494C152.533 69.3575 152.588 69.363 152.665 69.363C152.742 69.363 152.824 69.374 152.918 69.374V74.2081C152.824 74.2081 152.742 74.2136 152.665 74.2136C152.588 74.2136 152.533 74.2246 152.494 74.2246H152.417C152.318 74.2301 152.269 74.2741 152.269 74.3621V74.5161H152.918H156.185V74.1861V73.3831H155.992C155.882 73.3831 155.838 73.4546 155.827 73.5756C155.827 73.5921 155.822 73.6196 155.822 73.6746C155.822 73.7296 155.822 73.8066 155.811 73.9221C155.805 74.0376 155.8 74.1146 155.8 74.1861H153.308V71.9148H155.481V71.5958H153.308V69.396H155.8C155.811 69.7314 155.827 69.9404 155.827 70.0119C155.838 70.1329 155.882 70.1934 155.992 70.1934H156.185V69.396V69.0715H152.918ZM165.297 74.2246H165.242H165.143C165.099 74.2246 165.05 74.2136 165.006 74.2136L163.372 72.1567C163.328 72.0963 163.268 72.0413 163.202 72.0028C163.444 71.9808 163.658 71.9258 163.851 71.8433C164.043 71.7608 164.197 71.6508 164.335 71.5188C164.467 71.3868 164.577 71.2328 164.643 71.0678C164.714 70.8973 164.753 70.7049 164.753 70.4959C164.753 70.0284 164.599 69.6819 164.291 69.4345C163.983 69.1925 163.51 69.0715 162.883 69.0715H161.558H160.909V69.22C160.909 69.3025 160.958 69.3465 161.057 69.3575H161.134C161.173 69.3575 161.228 69.363 161.305 69.363C161.382 69.363 161.464 69.374 161.558 69.374V74.2081C161.464 74.2081 161.382 74.2136 161.305 74.2136C161.228 74.2136 161.173 74.2246 161.134 74.2246H161.057C160.958 74.2301 160.903 74.2741 160.903 74.3621V74.5161H161.558H161.948H162.597V74.3621C162.597 74.2741 162.542 74.2301 162.443 74.2246H162.366C162.328 74.2246 162.273 74.2136 162.196 74.2136C162.119 74.2136 162.042 74.2081 161.948 74.2081V72.0523H162.597C162.702 72.0523 162.778 72.0578 162.828 72.0798C162.872 72.1073 162.921 72.1512 162.965 72.2062L164.714 74.4171C164.742 74.4556 164.769 74.4776 164.797 74.4941C164.83 74.5051 164.868 74.5161 164.907 74.5161H164.945H165.242H165.446V74.3621C165.446 74.2741 165.396 74.2301 165.297 74.2246ZM162.828 71.7608H161.948V69.3795H162.883C163.367 69.3795 163.735 69.4785 163.988 69.6654C164.241 69.8469 164.368 70.1439 164.368 70.5289C164.368 70.7214 164.335 70.8808 164.269 71.0348C164.197 71.1888 164.087 71.3098 163.961 71.4198C163.829 71.5298 163.664 71.6178 163.471 71.6728C163.279 71.7278 163.064 71.7608 162.828 71.7608ZM171.506 69.3575C171.605 69.3465 171.649 69.3025 171.649 69.22V69.066H171.006H170.61H169.955V69.22C169.955 69.3025 170.01 69.3465 170.109 69.3575H170.186C170.225 69.3575 170.28 69.363 170.357 69.363C170.434 69.363 170.516 69.374 170.61 69.374V74.2081C170.516 74.2081 170.434 74.2136 170.357 74.2136C170.28 74.2136 170.225 74.2246 170.186 74.2246H170.109C170.01 74.2301 169.955 74.2741 169.955 74.3621V74.5161H170.61H171.006H171.649V74.3621C171.649 74.2741 171.605 74.2301 171.506 74.2246H171.429C171.391 74.2246 171.336 74.2136 171.259 74.2136C171.182 74.2136 171.094 74.2081 171.006 74.2081V69.374C171.094 69.374 171.182 69.363 171.259 69.363C171.336 69.363 171.391 69.3575 171.429 69.3575H171.506ZM181.098 69.0715H180.751H180.08V69.22C180.08 69.3025 180.135 69.3465 180.234 69.3575H180.311C180.35 69.3575 180.41 69.363 180.487 69.363C180.564 69.363 180.658 69.374 180.751 69.374V73.6361C180.751 73.7076 180.751 73.7846 180.757 73.8616L177.231 69.143C177.209 69.11 177.193 69.088 177.171 69.077C177.149 69.0715 177.127 69.066 177.088 69.066H176.896H176.241V69.22C176.241 69.3025 176.291 69.3465 176.395 69.3575H176.472C176.511 69.3575 176.56 69.363 176.637 69.363C176.714 69.363 176.802 69.374 176.896 69.374V74.2081C176.802 74.2081 176.714 74.2136 176.637 74.2136C176.56 74.2136 176.511 74.2246 176.472 74.2246H176.395C176.291 74.2301 176.241 74.2741 176.241 74.3621V74.5161H176.896H177.231H177.902V74.3621C177.902 74.2741 177.847 74.2301 177.748 74.2246H177.671C177.633 74.2246 177.561 74.2136 177.484 74.2136C177.407 74.2136 177.325 74.2081 177.231 74.2081V69.9349C177.231 69.8634 177.231 69.7864 177.226 69.7094L180.768 74.4391C180.806 74.4941 180.845 74.5161 180.905 74.5161H181.098V69.374C181.191 69.374 181.268 69.363 181.345 69.363C181.422 69.363 181.482 69.3575 181.521 69.3575H181.592C181.691 69.3465 181.746 69.3025 181.746 69.22V69.0715H181.098ZM189.264 72.0413V72.2612C189.264 72.2832 189.281 72.3052 189.297 72.3217C189.314 72.3382 189.336 72.3437 189.369 72.3437H190.414V73.8121C190.293 73.8836 190.166 73.9441 190.051 73.9991C189.935 74.0541 189.803 74.1091 189.677 74.1476C189.545 74.1861 189.396 74.2136 189.242 74.2301C189.088 74.2466 188.918 74.2521 188.736 74.2521C188.395 74.2521 188.087 74.1971 187.812 74.0816C187.532 73.9661 187.296 73.8066 187.098 73.5976C186.894 73.3886 186.74 73.1302 186.636 72.8222C186.526 72.5142 186.465 72.1732 186.465 71.7883C186.465 71.4143 186.526 71.0733 186.636 70.7709C186.74 70.4739 186.894 70.2099 187.098 70.0009C187.296 69.7974 187.543 69.6324 187.829 69.517C188.109 69.4015 188.428 69.3465 188.78 69.3465C189.429 69.3465 189.946 69.4345 190.32 69.6105C190.342 70.1109 190.359 70.3859 190.359 70.4409C190.37 70.5674 190.419 70.6279 190.529 70.6279H190.716V69.396C190.474 69.286 190.166 69.1925 189.781 69.1155C189.396 69.0385 189.072 69.011 188.797 69.011C188.379 69.011 188.005 69.0715 187.664 69.2035C187.329 69.3355 187.043 69.528 186.801 69.7644C186.564 70.0009 186.388 70.2979 186.256 70.6444C186.124 70.9798 186.064 71.3648 186.064 71.7883C186.064 72.2117 186.124 72.5912 186.256 72.9377C186.388 73.2842 186.564 73.5701 186.795 73.8121C187.026 74.0596 187.312 74.2466 187.637 74.3786C187.955 74.5051 188.313 74.5766 188.703 74.5766C188.934 74.5766 189.143 74.5601 189.336 74.5381C189.528 74.5051 189.704 74.4666 189.875 74.4226C190.045 74.3676 190.199 74.3071 190.342 74.2301C190.491 74.1531 190.628 74.0706 190.766 73.9771V72.0413H189.264ZM206.044 70.6554C205.923 70.3199 205.741 70.0394 205.51 69.8029C205.279 69.5665 205.01 69.3795 204.696 69.2585C204.383 69.132 204.02 69.0715 203.635 69.0715H201.748H201.094V69.22C201.094 69.3025 201.149 69.3465 201.248 69.3575H201.325C201.363 69.3575 201.418 69.363 201.495 69.363C201.572 69.363 201.655 69.374 201.748 69.374V74.2081C201.655 74.2081 201.572 74.2136 201.495 74.2136C201.418 74.2136 201.363 74.2246 201.325 74.2246H201.248C201.149 74.2301 201.094 74.2741 201.094 74.3621V74.5161H201.748H203.635C204.02 74.5161 204.383 74.4556 204.696 74.3291C205.01 74.2081 205.279 74.0211 205.51 73.7846C205.741 73.5426 205.923 73.2622 206.044 72.9212C206.165 72.5802 206.236 72.2117 206.236 71.7883C206.236 71.3758 206.165 70.9963 206.044 70.6554ZM205.664 72.8112C205.56 73.1137 205.422 73.3612 205.23 73.5701C205.037 73.7736 204.806 73.9276 204.537 74.0376C204.267 74.1476 203.965 74.1971 203.635 74.1971H202.139V69.385H203.635C203.965 69.385 204.267 69.44 204.537 69.55C204.806 69.6544 205.037 69.8084 205.23 70.0174C205.422 70.2264 205.56 70.4739 205.664 70.7709C205.774 71.0733 205.829 71.4143 205.829 71.7883C205.829 72.1732 205.774 72.5142 205.664 72.8112ZM211.45 69.0715H210.795V69.22C210.795 69.3025 210.85 69.3465 210.949 69.3575H211.026C211.065 69.3575 211.12 69.363 211.197 69.363C211.274 69.363 211.356 69.374 211.45 69.374V74.2081C211.356 74.2081 211.274 74.2136 211.197 74.2136C211.12 74.2136 211.065 74.2246 211.026 74.2246H210.949C210.85 74.2301 210.801 74.2741 210.801 74.3621V74.5161H211.45H214.711V74.1861V73.3831H214.518C214.414 73.3831 214.364 73.4546 214.359 73.5756C214.359 73.5921 214.353 73.6196 214.353 73.6746C214.353 73.7296 214.353 73.8066 214.342 73.9221C214.337 74.0376 214.326 74.1146 214.326 74.1861H211.84V71.9148H214.012V71.5958H211.84V69.396H214.326C214.342 69.7314 214.359 69.9404 214.359 70.0119C214.364 70.1329 214.414 70.1934 214.518 70.1934H214.711V69.396V69.0715H211.45ZM224.33 69.0715H224.022H224.005H223.197V69.22C223.197 69.3025 223.246 69.3465 223.345 69.3575H223.411C223.444 69.3575 223.488 69.363 223.56 69.363C223.631 69.363 223.708 69.374 223.791 69.374L222.025 73.6911C221.981 73.8066 221.943 73.9276 221.91 74.0706C221.882 73.9386 221.844 73.8066 221.794 73.6911L220.018 69.374C220.1 69.374 220.188 69.363 220.254 69.363C220.326 69.363 220.37 69.3575 220.403 69.3575H220.463C220.562 69.3465 220.617 69.3025 220.617 69.22V69.0715H219.792H219.484H219.154V69.22C219.154 69.3025 219.209 69.3465 219.308 69.3575H219.363C219.385 69.3575 219.424 69.363 219.462 69.363C219.501 69.363 219.556 69.374 219.611 69.374L221.734 74.5161H222.08L224.209 69.374C224.258 69.374 224.313 69.363 224.352 69.363C224.39 69.363 224.429 69.3575 224.451 69.3575H224.5C224.599 69.3465 224.654 69.3025 224.654 69.22V69.0715H224.33ZM232.584 73.4986C232.474 73.4986 232.43 73.5591 232.419 73.6856C232.419 73.6911 232.419 73.7241 232.414 73.7516C232.408 73.7846 232.408 73.8396 232.397 73.9056C232.392 73.9771 232.381 74.0706 232.375 74.1751H230.126V69.374C230.22 69.374 230.297 69.363 230.374 69.363C230.451 69.363 230.511 69.3575 230.55 69.3575H230.621C230.72 69.3465 230.775 69.3025 230.775 69.22V69.0715H230.126H229.736H229.081V69.22C229.081 69.3025 229.136 69.3465 229.235 69.3575H229.312C229.351 69.3575 229.406 69.363 229.483 69.363C229.56 69.363 229.642 69.374 229.736 69.374V74.2081C229.642 74.2081 229.56 74.2136 229.483 74.2136C229.406 74.2136 229.351 74.2246 229.312 74.2246H229.235C229.136 74.2301 229.081 74.2741 229.081 74.3621V74.5161H229.736H232.639H232.705H232.777V74.3676V74.0596V73.4986H232.623H232.584ZM242.198 71.7883C242.198 71.3758 242.132 70.9908 242.005 70.6499C241.884 70.3089 241.708 70.0174 241.477 69.7699C241.246 69.528 240.977 69.3355 240.658 69.2035C240.344 69.0715 239.981 69 239.596 69C239.211 69 238.865 69.0715 238.551 69.2035C238.232 69.3355 237.957 69.528 237.726 69.7699C237.496 70.0174 237.32 70.3089 237.193 70.6499C237.072 70.9908 237.001 71.3758 237.001 71.7883C237.001 72.2117 237.072 72.5967 237.193 72.9377C237.32 73.2732 237.496 73.5701 237.726 73.8121C237.957 74.0596 238.232 74.2466 238.551 74.3786C238.865 74.5051 239.211 74.5766 239.596 74.5766C239.981 74.5766 240.344 74.5051 240.658 74.3786C240.977 74.2466 241.246 74.0596 241.477 73.8121C241.708 73.5701 241.884 73.2732 242.005 72.9377C242.132 72.5967 242.198 72.2117 242.198 71.7883ZM241.785 71.7883C241.785 72.1732 241.736 72.5142 241.631 72.8112C241.521 73.1137 241.378 73.3776 241.186 73.5811C240.993 73.7901 240.762 73.9606 240.493 74.0706C240.223 74.1751 239.926 74.2301 239.596 74.2301C239.272 74.2301 238.98 74.1751 238.711 74.0706C238.441 73.9606 238.21 73.7901 238.018 73.5811C237.825 73.3776 237.671 73.1137 237.567 72.8112C237.457 72.5142 237.413 72.1732 237.413 71.7883C237.413 71.4143 237.457 71.0678 237.567 70.7654C237.671 70.4629 237.825 70.2044 238.018 69.9954C238.21 69.7864 238.441 69.616 238.711 69.5115C238.98 69.4015 239.272 69.341 239.596 69.341C239.926 69.341 240.223 69.4015 240.493 69.5115C240.762 69.616 240.993 69.7864 241.186 69.9954C241.378 70.2044 241.521 70.4629 241.631 70.7654C241.736 71.0678 241.785 71.4143 241.785 71.7883ZM250.177 69.4895C249.853 69.209 249.369 69.0715 248.731 69.0715H247.406H246.751V69.22C246.751 69.3025 246.806 69.3465 246.905 69.3575H246.982C247.021 69.3575 247.076 69.363 247.153 69.363C247.23 69.363 247.312 69.374 247.406 69.374V74.2081C247.312 74.2081 247.23 74.2136 247.153 74.2136C247.076 74.2136 247.021 74.2246 246.982 74.2246H246.905C246.806 74.2301 246.751 74.2741 246.751 74.3621V74.5161H247.406H247.796H248.445V74.3621C248.445 74.2741 248.39 74.2301 248.291 74.2246H248.22C248.181 74.2246 248.121 74.2136 248.044 74.2136C247.967 74.2136 247.89 74.2081 247.796 74.2081V72.3217H248.731C249.028 72.3217 249.298 72.2722 249.54 72.1952C249.776 72.1128 249.974 72.0028 250.144 71.8598C250.315 71.7113 250.447 71.5408 250.529 71.3428C250.623 71.1448 250.661 70.9248 250.661 70.6884C250.661 70.1714 250.502 69.7644 250.177 69.4895ZM250.161 71.2108C250.089 71.3758 249.99 71.5133 249.859 71.6288C249.732 71.7443 249.567 71.8378 249.375 71.9038C249.182 71.9753 248.968 72.0028 248.731 72.0028H247.796V69.3795H248.731C249.237 69.3795 249.622 69.495 249.886 69.7204C250.139 69.9404 250.271 70.2649 250.271 70.6829C250.271 70.8753 250.232 71.0513 250.161 71.2108ZM255.82 69.0715H255.166V69.22C255.166 69.3025 255.221 69.3465 255.32 69.3575H255.397C255.435 69.3575 255.49 69.363 255.567 69.363C255.644 69.363 255.727 69.374 255.82 69.374V74.2081C255.727 74.2081 255.644 74.2136 255.567 74.2136C255.49 74.2136 255.435 74.2246 255.397 74.2246H255.32C255.221 74.2301 255.171 74.2741 255.171 74.3621V74.5161H255.82H259.087V74.1861V73.3831H258.894C258.784 73.3831 258.74 73.4546 258.729 73.5756C258.729 73.5921 258.724 73.6196 258.724 73.6746C258.724 73.7296 258.724 73.8066 258.713 73.9221C258.707 74.0376 258.702 74.1146 258.702 74.1861H256.21V71.9148H258.383V71.5958H256.21V69.396H258.702C258.713 69.7314 258.729 69.9404 258.729 70.0119C258.74 70.1329 258.784 70.1934 258.894 70.1934H259.087V69.396V69.0715H255.82ZM268.2 74.2246H268.145H268.046C268.002 74.2246 267.952 74.2136 267.908 74.2136L266.275 72.1567C266.231 72.0963 266.17 72.0413 266.104 72.0028C266.346 71.9808 266.561 71.9258 266.753 71.8433C266.946 71.7608 267.1 71.6508 267.237 71.5188C267.369 71.3868 267.479 71.2328 267.545 71.0678C267.617 70.8973 267.655 70.7049 267.655 70.4959C267.655 70.0284 267.501 69.6819 267.193 69.4345C266.885 69.1925 266.412 69.0715 265.785 69.0715H264.46H263.811V69.22C263.811 69.3025 263.86 69.3465 263.959 69.3575H264.036C264.075 69.3575 264.13 69.363 264.207 69.363C264.284 69.363 264.366 69.374 264.46 69.374V74.2081C264.366 74.2081 264.284 74.2136 264.207 74.2136C264.13 74.2136 264.075 74.2246 264.036 74.2246H263.959C263.86 74.2301 263.805 74.2741 263.805 74.3621V74.5161H264.46H264.85H265.499V74.3621C265.499 74.2741 265.444 74.2301 265.345 74.2246H265.268C265.23 74.2246 265.175 74.2136 265.098 74.2136C265.021 74.2136 264.944 74.2081 264.85 74.2081V72.0523H265.499C265.604 72.0523 265.681 72.0578 265.73 72.0798C265.774 72.1073 265.824 72.1512 265.868 72.2062L267.617 74.4171C267.644 74.4556 267.672 74.4776 267.699 74.4941C267.732 74.5051 267.771 74.5161 267.809 74.5161H267.848H268.145H268.348V74.3621C268.348 74.2741 268.299 74.2301 268.2 74.2246ZM265.73 71.7608H264.85V69.3795H265.785C266.269 69.3795 266.638 69.4785 266.891 69.6654C267.144 69.8469 267.27 70.1439 267.27 70.5289C267.27 70.7214 267.237 70.8808 267.171 71.0348C267.1 71.1888 266.99 71.3098 266.863 71.4198C266.731 71.5298 266.566 71.6178 266.374 71.6728C266.181 71.7278 265.967 71.7608 265.73 71.7608ZM276.009 72.3657C275.932 72.2227 275.822 72.0798 275.69 71.9808C275.563 71.8818 275.42 71.7993 275.261 71.7278C275.101 71.6563 274.92 71.5958 274.755 71.5408C274.585 71.4913 274.414 71.4253 274.255 71.3758C274.09 71.3098 273.947 71.2438 273.815 71.1558C273.683 71.0733 273.584 70.9743 273.507 70.8479C273.43 70.7269 273.38 70.5729 273.38 70.3859C273.38 70.2484 273.413 70.1164 273.468 69.9899C273.523 69.8579 273.6 69.7479 273.699 69.6489C273.798 69.55 273.919 69.473 274.073 69.418C274.227 69.363 274.398 69.3355 274.601 69.3355C274.969 69.3355 275.305 69.396 275.613 69.528C275.64 69.9624 275.651 70.2099 275.651 70.2484C275.662 70.3749 275.706 70.4409 275.816 70.4409H275.998V69.3245C275.514 69.1155 275.052 69.011 274.601 69.011C274.343 69.011 274.123 69.0495 273.919 69.1265C273.721 69.2035 273.562 69.3025 273.43 69.4345C273.298 69.5665 273.188 69.7094 273.122 69.8799C273.05 70.0504 273.023 70.2264 273.023 70.4134C273.023 70.6444 273.061 70.8424 273.138 70.9963C273.215 71.1503 273.32 71.2713 273.452 71.3813C273.584 71.4913 273.721 71.5683 273.881 71.6343C274.046 71.7058 274.222 71.7663 274.392 71.8213C274.563 71.8763 274.722 71.9258 274.892 71.9808C275.052 72.0358 275.2 72.1128 275.332 72.1952C275.459 72.2832 275.563 72.3822 275.64 72.5032C275.717 72.6297 275.756 72.7892 275.756 72.9817C275.756 73.1577 275.723 73.3282 275.662 73.4821C275.602 73.6361 275.514 73.7681 275.398 73.8836C275.283 73.9991 275.14 74.0926 274.969 74.1531C274.799 74.2246 274.607 74.2466 274.392 74.2466C273.958 74.2466 273.6 74.1751 273.303 74.0376C273.298 73.9276 273.298 73.8121 273.292 73.6911C273.281 73.5701 273.281 73.4656 273.276 73.3831C273.265 73.3007 273.265 73.2512 273.265 73.2457C273.259 73.1192 273.204 73.0587 273.1 73.0587H272.913V74.0761V74.1751V74.2741C273.38 74.4776 273.87 74.5766 274.376 74.5766C274.651 74.5766 274.898 74.5326 275.112 74.4446C275.332 74.3621 275.514 74.2356 275.662 74.0926C275.805 73.9441 275.932 73.7681 276.009 73.5701C276.086 73.3667 276.124 73.1522 276.124 72.9212C276.124 72.6957 276.086 72.5142 276.009 72.3657ZM280.838 74.1916C280.838 74.2906 280.86 74.3786 280.92 74.4391C280.981 74.4996 281.069 74.5326 281.156 74.5326H281.222C281.233 74.5326 281.25 74.5216 281.266 74.5161C281.261 74.6096 281.233 74.692 281.206 74.7745C281.173 74.8625 281.135 74.9285 281.096 75C281.058 75.0715 281.019 75.132 280.98 75.176C280.942 75.2255 280.904 75.2695 280.882 75.2915C280.876 75.3025 280.865 75.3135 280.86 75.33C280.849 75.3465 280.843 75.3465 280.843 75.363C280.843 75.385 280.849 75.407 280.876 75.429L280.937 75.484C281.019 75.4015 281.107 75.3245 281.173 75.2255C281.244 75.121 281.305 75.022 281.36 74.9175C281.415 74.8075 281.442 74.6975 281.475 74.5931C281.503 74.4831 281.514 74.3841 281.514 74.2741C281.514 74.1531 281.481 74.0541 281.42 73.9771C281.36 73.9001 281.272 73.8616 281.167 73.8616C281.068 73.8616 280.992 73.9001 280.926 73.9606C280.865 74.0211 280.838 74.0981 280.838 74.1916ZM295.89 72.1512C295.659 71.9258 295.323 71.7883 294.894 71.7278C295.07 71.6838 295.224 71.6178 295.362 71.5353C295.505 71.4528 295.626 71.3593 295.719 71.2438C295.813 71.1283 295.89 71.0018 295.934 70.8753C295.978 70.7434 296.011 70.6059 296.011 70.4574C296.011 70.2429 295.967 70.0394 295.895 69.8744C295.824 69.7039 295.708 69.5555 295.565 69.4345C295.417 69.319 295.235 69.2255 295.004 69.165C294.773 69.1045 294.504 69.0715 294.196 69.0715H292.629H291.974V69.22C291.974 69.3025 292.029 69.3465 292.128 69.3575H292.205C292.244 69.3575 292.299 69.363 292.376 69.363C292.453 69.363 292.541 69.374 292.629 69.374V74.2081C292.541 74.2081 292.453 74.2136 292.376 74.2136C292.299 74.2136 292.244 74.2246 292.205 74.2246H292.128C292.029 74.2301 291.985 74.2741 291.985 74.3621V74.5161H292.629H294.394C294.685 74.5161 294.938 74.4831 295.169 74.4171C295.4 74.3456 295.593 74.2521 295.747 74.1201C295.901 73.9936 296.027 73.8396 296.11 73.6526C296.198 73.4656 296.236 73.2622 296.236 73.0312C296.236 72.6682 296.121 72.3767 295.89 72.1512ZM293.025 69.3795H294.196C294.68 69.3795 295.043 69.4785 295.274 69.6654C295.505 69.8579 295.62 70.1274 295.62 70.4959C295.62 70.6334 295.593 70.7819 295.543 70.9138C295.488 71.0403 295.4 71.1558 295.285 71.2658C295.169 71.3758 295.026 71.4583 294.85 71.5188C294.669 71.5793 294.454 71.6178 294.201 71.6178H293.025V69.3795ZM295.472 73.8891C295.224 74.0981 294.861 74.1971 294.388 74.1971H293.025V71.9038H294.394C294.625 71.9038 294.823 71.9258 295.004 71.9808C295.18 72.0358 295.334 72.1128 295.455 72.2062C295.582 72.3052 295.67 72.4152 295.741 72.5527C295.802 72.6902 295.84 72.8497 295.84 73.0202C295.84 73.3996 295.719 73.6856 295.472 73.8891ZM305.311 69.0715H304.92H304.172V69.22C304.172 69.3025 304.227 69.3465 304.326 69.3575H304.42C304.475 69.3575 304.552 69.363 304.64 69.363C304.733 69.363 304.827 69.374 304.92 69.374V72.4372C304.92 72.6902 304.882 72.9212 304.805 73.1467C304.728 73.3666 304.618 73.5591 304.475 73.7241C304.326 73.8836 304.156 74.0046 303.947 74.0981C303.743 74.1916 303.512 74.2356 303.248 74.2356C302.984 74.2356 302.748 74.1916 302.539 74.0981C302.33 74.0046 302.154 73.8781 302.016 73.7131C301.868 73.5536 301.769 73.3612 301.692 73.1467C301.615 72.9267 301.576 72.6902 301.576 72.4372V69.374C301.67 69.374 301.763 69.363 301.857 69.363C301.945 69.363 302.022 69.3575 302.077 69.3575H302.17C302.269 69.3465 302.324 69.3025 302.324 69.22V69.0715H301.576H301.186H300.537V69.22C300.537 69.3025 300.586 69.3465 300.685 69.3575H300.762C300.801 69.3575 300.856 69.363 300.933 69.363C301.01 69.363 301.092 69.374 301.186 69.374V72.4372C301.186 72.7342 301.23 73.0147 301.323 73.2732C301.417 73.5371 301.554 73.7681 301.73 73.9606C301.906 74.1531 302.132 74.3071 302.385 74.4171C302.638 74.5216 302.935 74.5766 303.248 74.5766C303.562 74.5766 303.848 74.5216 304.101 74.4171C304.359 74.3071 304.579 74.1531 304.755 73.9606C304.937 73.7681 305.074 73.5371 305.168 73.2732C305.256 73.0147 305.311 72.7342 305.311 72.4372V69.374C305.404 69.374 305.481 69.363 305.558 69.363C305.635 69.363 305.696 69.3575 305.734 69.3575H305.806C305.905 69.3465 305.96 69.3025 305.96 69.22V69.0715H305.311ZM311.916 69.3575C312.02 69.3465 312.064 69.3025 312.064 69.22V69.066H311.415H311.025H310.37V69.22C310.37 69.3025 310.425 69.3465 310.524 69.3575H310.601C310.64 69.3575 310.695 69.363 310.772 69.363C310.849 69.363 310.931 69.374 311.025 69.374V74.2081C310.931 74.2081 310.849 74.2136 310.772 74.2136C310.695 74.2136 310.64 74.2246 310.601 74.2246H310.524C310.425 74.2301 310.37 74.2741 310.37 74.3621V74.5161H311.025H311.415H312.064V74.3621C312.064 74.2741 312.02 74.2301 311.916 74.2246H311.839C311.8 74.2246 311.751 74.2136 311.674 74.2136C311.597 74.2136 311.509 74.2081 311.415 74.2081V69.374C311.509 69.374 311.597 69.363 311.674 69.363C311.751 69.363 311.8 69.3575 311.839 69.3575H311.916ZM320.154 73.4986C320.049 73.4986 320 73.5591 319.994 73.6856C319.994 73.6911 319.994 73.7241 319.989 73.7516C319.978 73.7846 319.978 73.8396 319.972 73.9056C319.961 73.9771 319.956 74.0706 319.95 74.1751H317.701V69.374C317.795 69.374 317.872 69.363 317.949 69.363C318.026 69.363 318.086 69.3575 318.125 69.3575H318.191C318.295 69.3465 318.344 69.3025 318.344 69.22V69.0715H317.701H317.305H316.651V69.22C316.651 69.3025 316.706 69.3465 316.805 69.3575H316.882C316.92 69.3575 316.975 69.363 317.052 69.363C317.129 69.363 317.217 69.374 317.305 69.374V74.2081C317.217 74.2081 317.129 74.2136 317.052 74.2136C316.975 74.2136 316.92 74.2246 316.882 74.2246H316.805C316.706 74.2301 316.651 74.2741 316.651 74.3621V74.5161H317.305H320.209H320.28H320.346V74.3676V74.0596V73.4986H320.192H320.154ZM329.932 70.6554C329.811 70.3199 329.635 70.0394 329.404 69.8029C329.173 69.5665 328.904 69.3795 328.585 69.2585C328.271 69.132 327.908 69.0715 327.523 69.0715H325.637H324.982V69.22C324.982 69.3025 325.037 69.3465 325.136 69.3575H325.213C325.252 69.3575 325.307 69.363 325.384 69.363C325.461 69.363 325.543 69.374 325.637 69.374V74.2081C325.543 74.2081 325.461 74.2136 325.384 74.2136C325.307 74.2136 325.252 74.2246 325.213 74.2246H325.136C325.037 74.2301 324.982 74.2741 324.982 74.3621V74.5161H325.637H327.523C327.908 74.5161 328.271 74.4556 328.585 74.3291C328.904 74.2081 329.173 74.0211 329.404 73.7846C329.635 73.5426 329.811 73.2622 329.932 72.9212C330.059 72.5802 330.125 72.2117 330.125 71.7883C330.125 71.3758 330.059 70.9963 329.932 70.6554ZM329.558 72.8112C329.448 73.1137 329.311 73.3612 329.118 73.5701C328.926 73.7736 328.695 73.9276 328.425 74.0376C328.156 74.1476 327.853 74.1971 327.523 74.1971H326.033V69.385H327.523C327.853 69.385 328.156 69.44 328.425 69.55C328.695 69.6544 328.926 69.8084 329.118 70.0174C329.311 70.2264 329.448 70.4739 329.558 70.7709C329.663 71.0733 329.718 71.4143 329.718 71.7883C329.718 72.1732 329.663 72.5142 329.558 72.8112ZM336.235 69.3575C336.334 69.3465 336.378 69.3025 336.378 69.22V69.066H335.734H335.338H334.684V69.22C334.684 69.3025 334.739 69.3465 334.838 69.3575H334.915C334.953 69.3575 335.008 69.363 335.085 69.363C335.162 69.363 335.245 69.374 335.338 69.374V74.2081C335.245 74.2081 335.162 74.2136 335.085 74.2136C335.008 74.2136 334.953 74.2246 334.915 74.2246H334.838C334.739 74.2301 334.684 74.2741 334.684 74.3621V74.5161H335.338H335.734H336.378V74.3621C336.378 74.2741 336.334 74.2301 336.235 74.2246H336.158C336.119 74.2246 336.064 74.2136 335.987 74.2136C335.91 74.2136 335.822 74.2081 335.734 74.2081V69.374C335.822 69.374 335.91 69.363 335.987 69.363C336.064 69.363 336.119 69.3575 336.158 69.3575H336.235ZM345.826 69.0715H345.479H344.808V69.22C344.808 69.3025 344.863 69.3465 344.962 69.3575H345.039C345.078 69.3575 345.138 69.363 345.215 69.363C345.292 69.363 345.386 69.374 345.479 69.374V73.6361C345.479 73.7076 345.479 73.7846 345.485 73.8616L341.96 69.143C341.938 69.11 341.921 69.088 341.899 69.077C341.877 69.0715 341.855 69.066 341.817 69.066H341.624H340.97V69.22C340.97 69.3025 341.019 69.3465 341.124 69.3575H341.201C341.239 69.3575 341.289 69.363 341.366 69.363C341.443 69.363 341.531 69.374 341.624 69.374V74.2081C341.531 74.2081 341.443 74.2136 341.366 74.2136C341.289 74.2136 341.239 74.2246 341.201 74.2246H341.124C341.019 74.2301 340.97 74.2741 340.97 74.3621V74.5161H341.624H341.96H342.631V74.3621C342.631 74.2741 342.576 74.2301 342.477 74.2246H342.4C342.361 74.2246 342.29 74.2136 342.213 74.2136C342.136 74.2136 342.053 74.2081 341.96 74.2081V69.9349C341.96 69.8634 341.96 69.7864 341.954 69.7094L345.496 74.4391C345.534 74.4941 345.573 74.5161 345.633 74.5161H345.826V69.374C345.919 69.374 345.996 69.363 346.073 69.363C346.15 69.363 346.211 69.3575 346.249 69.3575H346.321C346.42 69.3465 346.475 69.3025 346.475 69.22V69.0715H345.826ZM353.993 72.0413V72.2612C353.993 72.2832 354.009 72.3052 354.026 72.3217C354.042 72.3382 354.064 72.3437 354.097 72.3437H355.142V73.8121C355.021 73.8836 354.895 73.9441 354.779 73.9991C354.664 74.0541 354.532 74.1091 354.405 74.1476C354.273 74.1861 354.125 74.2136 353.971 74.2301C353.817 74.2466 353.646 74.2521 353.465 74.2521C353.124 74.2521 352.816 74.1971 352.541 74.0816C352.26 73.9661 352.024 73.8066 351.826 73.5976C351.622 73.3886 351.468 73.1302 351.364 72.8222C351.254 72.5142 351.193 72.1732 351.193 71.7883C351.193 71.4143 351.254 71.0733 351.364 70.7709C351.468 70.4739 351.622 70.2099 351.826 70.0009C352.024 69.7974 352.271 69.6324 352.557 69.517C352.838 69.4015 353.157 69.3465 353.509 69.3465C354.158 69.3465 354.675 69.4345 355.049 69.6105C355.071 70.1109 355.087 70.3859 355.087 70.4409C355.098 70.5674 355.148 70.6279 355.258 70.6279H355.445V69.396C355.203 69.286 354.895 69.1925 354.51 69.1155C354.125 69.0385 353.8 69.011 353.525 69.011C353.107 69.011 352.733 69.0715 352.392 69.2035C352.057 69.3355 351.771 69.528 351.529 69.7644C351.292 70.0009 351.116 70.2979 350.984 70.6444C350.852 70.9798 350.792 71.3648 350.792 71.7883C350.792 72.2117 350.852 72.5912 350.984 72.9377C351.116 73.2842 351.292 73.5701 351.523 73.8121C351.754 74.0596 352.04 74.2466 352.365 74.3786C352.684 74.5051 353.041 74.5766 353.432 74.5766C353.663 74.5766 353.872 74.5601 354.064 74.5381C354.257 74.5051 354.433 74.4666 354.603 74.4226C354.774 74.3676 354.928 74.3071 355.071 74.2301C355.219 74.1531 355.357 74.0706 355.494 73.9771V72.0413H353.993ZM370.073 73.6306C370.057 73.6141 370.035 73.5976 370.007 73.5976C369.996 73.5976 369.985 73.5976 369.969 73.6086C369.963 73.6141 369.947 73.6306 369.93 73.6361C369.826 73.7351 369.71 73.8231 369.6 73.9001C369.496 73.9771 369.38 74.0321 369.248 74.0816C369.116 74.1366 368.979 74.1751 368.825 74.1971C368.671 74.2246 368.5 74.2356 368.308 74.2356C368 74.2356 367.698 74.1861 367.439 74.0706C367.17 73.9606 366.944 73.8011 366.752 73.5921C366.559 73.3831 366.4 73.1192 366.29 72.8222C366.185 72.5197 366.13 72.1732 366.13 71.7883C366.13 71.4143 366.185 71.0733 366.29 70.7709C366.405 70.4739 366.559 70.2209 366.763 70.0009C366.961 69.7974 367.197 69.6324 367.478 69.517C367.753 69.4015 368.055 69.3465 368.385 69.3465C368.88 69.3465 369.331 69.4235 369.732 69.605C369.754 70.0944 369.776 70.3804 369.776 70.4409C369.787 70.5674 369.831 70.6279 369.941 70.6279H370.123V69.396C369.479 69.132 368.891 69.011 368.385 69.011C367.995 69.011 367.637 69.0715 367.307 69.209C366.983 69.3465 366.691 69.5335 366.46 69.7809C366.224 70.0284 366.042 70.3199 365.916 70.6554C365.784 70.9963 365.723 71.3758 365.723 71.7883C365.723 72.2117 365.789 72.5912 365.916 72.9377C366.037 73.2842 366.213 73.5701 366.438 73.8121C366.658 74.0596 366.928 74.2466 367.247 74.3786C367.56 74.5051 367.901 74.5766 368.275 74.5766C368.5 74.5766 368.709 74.5601 368.902 74.5216C369.083 74.4831 369.265 74.4281 369.424 74.3621C369.578 74.2906 369.727 74.2081 369.853 74.1146C369.985 74.0156 370.112 73.9166 370.227 73.7901L370.073 73.6306ZM379.725 71.7883C379.725 71.3758 379.659 70.9908 379.533 70.6499C379.412 70.3089 379.236 70.0174 379.005 69.7699C378.774 69.528 378.504 69.3355 378.185 69.2035C377.872 69.0715 377.509 69 377.124 69C376.739 69 376.392 69.0715 376.079 69.2035C375.76 69.3355 375.485 69.528 375.254 69.7699C375.023 70.0174 374.847 70.3089 374.72 70.6499C374.599 70.9908 374.528 71.3758 374.528 71.7883C374.528 72.2117 374.599 72.5967 374.72 72.9377C374.847 73.2732 375.023 73.5701 375.254 73.8121C375.485 74.0596 375.76 74.2466 376.079 74.3786C376.392 74.5051 376.739 74.5766 377.124 74.5766C377.509 74.5766 377.872 74.5051 378.185 74.3786C378.504 74.2466 378.774 74.0596 379.005 73.8121C379.236 73.5701 379.412 73.2732 379.533 72.9377C379.659 72.5967 379.725 72.2117 379.725 71.7883ZM379.313 71.7883C379.313 72.1732 379.263 72.5142 379.159 72.8112C379.049 73.1137 378.9 73.3776 378.708 73.5811C378.515 73.7901 378.284 73.9606 378.015 74.0706C377.745 74.1751 377.454 74.2301 377.124 74.2301C376.799 74.2301 376.508 74.1751 376.238 74.0706C375.969 73.9606 375.738 73.7901 375.545 73.5811C375.353 73.3776 375.199 73.1137 375.089 72.8112C374.984 72.5142 374.935 72.1732 374.935 71.7883C374.935 71.4143 374.984 71.0678 375.089 70.7654C375.199 70.4629 375.353 70.2044 375.545 69.9954C375.738 69.7864 375.969 69.616 376.238 69.5115C376.508 69.4015 376.799 69.341 377.124 69.341C377.454 69.341 377.745 69.4015 378.015 69.5115C378.284 69.616 378.515 69.7864 378.708 69.9954C378.9 70.2044 379.049 70.4629 379.159 70.7654C379.263 71.0678 379.313 71.4143 379.313 71.7883ZM388.981 69.0715H388.634H387.963V69.22C387.963 69.3025 388.018 69.3465 388.117 69.3575H388.194C388.233 69.3575 388.293 69.363 388.37 69.363C388.447 69.363 388.541 69.374 388.634 69.374V73.6361C388.634 73.7076 388.634 73.7846 388.64 73.8616L385.115 69.143C385.093 69.11 385.076 69.088 385.054 69.077C385.032 69.0715 385.01 69.066 384.972 69.066H384.779H384.125V69.22C384.125 69.3025 384.174 69.3465 384.279 69.3575H384.356C384.394 69.3575 384.444 69.363 384.521 69.363C384.598 69.363 384.686 69.374 384.779 69.374V74.2081C384.686 74.2081 384.598 74.2136 384.521 74.2136C384.444 74.2136 384.394 74.2246 384.356 74.2246H384.279C384.174 74.2301 384.125 74.2741 384.125 74.3621V74.5161H384.779H385.115H385.786V74.3621C385.786 74.2741 385.731 74.2301 385.632 74.2246H385.555C385.516 74.2246 385.445 74.2136 385.368 74.2136C385.291 74.2136 385.208 74.2081 385.115 74.2081V69.9349C385.115 69.8634 385.115 69.7864 385.109 69.7094L388.651 74.4391C388.689 74.4941 388.728 74.5161 388.788 74.5161H388.981V69.374C389.074 69.374 389.151 69.363 389.228 69.363C389.305 69.363 389.366 69.3575 389.404 69.3575H389.476C389.575 69.3465 389.63 69.3025 389.63 69.22V69.0715H388.981ZM398.908 69.0715H398.561H397.89V69.22C397.89 69.3025 397.945 69.3465 398.044 69.3575H398.121C398.16 69.3575 398.22 69.363 398.297 69.363C398.374 69.363 398.468 69.374 398.561 69.374V73.6361C398.561 73.7076 398.561 73.7846 398.567 73.8616L395.041 69.143C395.019 69.11 395.003 69.088 394.981 69.077C394.953 69.0715 394.931 69.066 394.893 69.066H394.7H394.046V69.22C394.046 69.3025 394.101 69.3465 394.2 69.3575H394.277C394.315 69.3575 394.37 69.363 394.447 69.363C394.524 69.363 394.607 69.374 394.7 69.374V74.2081C394.607 74.2081 394.524 74.2136 394.447 74.2136C394.37 74.2136 394.315 74.2246 394.277 74.2246H394.2C394.101 74.2301 394.046 74.2741 394.046 74.3621V74.5161H394.7H395.041H395.712V74.3621C395.712 74.2741 395.657 74.2301 395.558 74.2246H395.481C395.443 74.2246 395.371 74.2136 395.294 74.2136C395.217 74.2136 395.135 74.2081 395.041 74.2081V69.9349C395.041 69.8634 395.041 69.7864 395.03 69.7094L398.572 74.4391C398.611 74.4941 398.649 74.5161 398.715 74.5161H398.908V69.374C398.996 69.374 399.073 69.363 399.15 69.363C399.226 69.363 399.292 69.3575 399.331 69.3575H399.397C399.496 69.3465 399.551 69.3025 399.551 69.22V69.0715H398.908ZM404.627 69.0715H403.973V69.22C403.973 69.3025 404.028 69.3465 404.127 69.3575H404.204C404.242 69.3575 404.297 69.363 404.374 69.363C404.451 69.363 404.534 69.374 404.627 69.374V74.2081C404.534 74.2081 404.451 74.2136 404.374 74.2136C404.297 74.2136 404.242 74.2246 404.204 74.2246H404.127C404.028 74.2301 403.978 74.2741 403.978 74.3621V74.5161H404.627H407.888V74.1861V73.3831H407.696C407.591 73.3831 407.542 73.4546 407.536 73.5756C407.536 73.5921 407.531 73.6196 407.531 73.6746C407.531 73.7296 407.531 73.8066 407.52 73.9221C407.514 74.0376 407.503 74.1146 407.503 74.1861H405.018V71.9148H407.19V71.5958H405.018V69.396H407.503C407.52 69.7314 407.536 69.9404 407.536 70.0119C407.542 70.1329 407.591 70.1934 407.696 70.1934H407.888V69.396V69.0715H404.627ZM416.798 73.6306C416.781 73.6141 416.759 73.5976 416.737 73.5976C416.721 73.5976 416.715 73.5976 416.699 73.6086C416.693 73.6141 416.677 73.6306 416.66 73.6361C416.55 73.7351 416.435 73.8231 416.33 73.9001C416.22 73.9771 416.105 74.0321 415.973 74.0816C415.846 74.1366 415.703 74.1751 415.549 74.1971C415.395 74.2246 415.23 74.2356 415.038 74.2356C414.73 74.2356 414.427 74.1861 414.163 74.0706C413.894 73.9606 413.674 73.8011 413.481 73.5921C413.289 73.3831 413.124 73.1192 413.019 72.8222C412.909 72.5197 412.854 72.1732 412.854 71.7883C412.854 71.4143 412.909 71.0733 413.019 70.7709C413.135 70.4739 413.289 70.2209 413.487 70.0009C413.69 69.7974 413.927 69.6324 414.202 69.517C414.482 69.4015 414.779 69.3465 415.115 69.3465C415.604 69.3465 416.061 69.4235 416.462 69.605C416.484 70.0944 416.506 70.3804 416.506 70.4409C416.512 70.5674 416.561 70.6279 416.666 70.6279H416.853V69.396C416.204 69.132 415.621 69.011 415.115 69.011C414.719 69.011 414.367 69.0715 414.037 69.209C413.712 69.3465 413.421 69.5335 413.19 69.7809C412.948 70.0284 412.772 70.3199 412.64 70.6554C412.508 70.9963 412.447 71.3758 412.447 71.7883C412.447 72.2117 412.519 72.5912 412.64 72.9377C412.766 73.2842 412.942 73.5701 413.162 73.8121C413.388 74.0596 413.657 74.2466 413.971 74.3786C414.29 74.5051 414.625 74.5766 415.005 74.5766C415.23 74.5766 415.434 74.5601 415.626 74.5216C415.813 74.4831 415.989 74.4281 416.154 74.3621C416.308 74.2906 416.451 74.2081 416.583 74.1146C416.715 74.0156 416.836 73.9166 416.952 73.7901L416.798 73.6306ZM425.839 69.0715H425.729H421.72H421.604H421.549V70.1934H421.742C421.852 70.1934 421.896 70.1329 421.901 70.0119C421.901 69.9569 421.918 69.7589 421.934 69.4015H423.529V74.2081C423.436 74.2081 423.359 74.2136 423.282 74.2136C423.205 74.2136 423.144 74.2246 423.106 74.2246H423.034C422.935 74.2301 422.88 74.2741 422.88 74.3621V74.5161H423.529H423.92H424.574V74.3621C424.574 74.2741 424.519 74.2301 424.42 74.2246H424.343C424.304 74.2246 424.249 74.2136 424.172 74.2136C424.095 74.2136 424.013 74.2081 423.92 74.2081V69.4015H425.509C425.531 69.7974 425.536 69.9954 425.536 70.0119C425.547 70.1329 425.597 70.1934 425.707 70.1934H425.894V69.0715H425.839ZM431.899 69.3575C431.998 69.3465 432.042 69.3025 432.042 69.22V69.066H431.399H431.003H430.349V69.22C430.349 69.3025 430.404 69.3465 430.503 69.3575H430.579C430.618 69.3575 430.673 69.363 430.75 69.363C430.827 69.363 430.909 69.374 431.003 69.374V74.2081C430.909 74.2081 430.827 74.2136 430.75 74.2136C430.673 74.2136 430.618 74.2246 430.579 74.2246H430.503C430.404 74.2301 430.349 74.2741 430.349 74.3621V74.5161H431.003H431.399H432.042V74.3621C432.042 74.2741 431.998 74.2301 431.899 74.2246H431.822C431.784 74.2246 431.729 74.2136 431.652 74.2136C431.575 74.2136 431.487 74.2081 431.399 74.2081V69.374C431.487 69.374 431.575 69.363 431.652 69.363C431.729 69.363 431.784 69.3575 431.822 69.3575H431.899ZM441.727 71.7883C441.727 71.3758 441.661 70.9908 441.535 70.6499C441.414 70.3089 441.238 70.0174 441.007 69.7699C440.776 69.528 440.506 69.3355 440.187 69.2035C439.874 69.0715 439.511 69 439.126 69C438.741 69 438.394 69.0715 438.081 69.2035C437.762 69.3355 437.487 69.528 437.256 69.7699C437.025 70.0174 436.849 70.3089 436.723 70.6499C436.602 70.9908 436.53 71.3758 436.53 71.7883C436.53 72.2117 436.602 72.5967 436.723 72.9377C436.849 73.2732 437.025 73.5701 437.256 73.8121C437.487 74.0596 437.762 74.2466 438.081 74.3786C438.394 74.5051 438.741 74.5766 439.126 74.5766C439.511 74.5766 439.874 74.5051 440.187 74.3786C440.506 74.2466 440.776 74.0596 441.007 73.8121C441.238 73.5701 441.414 73.2732 441.535 72.9377C441.661 72.5967 441.727 72.2117 441.727 71.7883ZM441.315 71.7883C441.315 72.1732 441.265 72.5142 441.161 72.8112C441.051 73.1137 440.908 73.3776 440.715 73.5811C440.523 73.7901 440.292 73.9606 440.022 74.0706C439.753 74.1751 439.456 74.2301 439.126 74.2301C438.801 74.2301 438.51 74.1751 438.24 74.0706C437.971 73.9606 437.74 73.7901 437.547 73.5811C437.355 73.3776 437.201 73.1137 437.096 72.8112C436.986 72.5142 436.943 72.1732 436.943 71.7883C436.943 71.4143 436.986 71.0678 437.096 70.7654C437.201 70.4629 437.355 70.2044 437.547 69.9954C437.74 69.7864 437.971 69.616 438.24 69.5115C438.51 69.4015 438.801 69.341 439.126 69.341C439.456 69.341 439.753 69.4015 440.022 69.5115C440.292 69.616 440.523 69.7864 440.715 69.9954C440.908 70.2044 441.051 70.4629 441.161 70.7654C441.265 71.0678 441.315 71.4143 441.315 71.7883ZM450.983 69.0715H450.636H449.965V69.22C449.965 69.3025 450.02 69.3465 450.119 69.3575H450.196C450.235 69.3575 450.301 69.363 450.378 69.363C450.455 69.363 450.543 69.374 450.636 69.374V73.6361C450.636 73.7076 450.636 73.7846 450.647 73.8616L447.117 69.143C447.095 69.11 447.078 69.088 447.056 69.077C447.034 69.0715 447.012 69.066 446.974 69.066H446.781H446.127V69.22C446.127 69.3025 446.182 69.3465 446.281 69.3575H446.358C446.396 69.3575 446.451 69.363 446.528 69.363C446.605 69.363 446.688 69.374 446.781 69.374V74.2081C446.688 74.2081 446.605 74.2136 446.528 74.2136C446.451 74.2136 446.396 74.2246 446.358 74.2246H446.281C446.182 74.2301 446.127 74.2741 446.127 74.3621V74.5161H446.781H447.117H447.788V74.3621C447.788 74.2741 447.733 74.2301 447.634 74.2246H447.557C447.518 74.2246 447.452 74.2136 447.375 74.2136C447.298 74.2136 447.21 74.2081 447.117 74.2081V69.9349C447.117 69.8634 447.117 69.7864 447.111 69.7094L450.653 74.4391C450.691 74.4941 450.73 74.5161 450.79 74.5161H450.983V69.374C451.076 69.374 451.153 69.363 451.23 69.363C451.307 69.363 451.368 69.3575 451.406 69.3575H451.478C451.577 69.3465 451.632 69.3025 451.632 69.22V69.0715H450.983ZM459.199 72.3657C459.122 72.2227 459.012 72.0798 458.886 71.9808C458.754 71.8818 458.616 71.7993 458.451 71.7278C458.292 71.6563 458.116 71.5958 457.945 71.5408C457.775 71.4913 457.604 71.4253 457.445 71.3758C457.28 71.3098 457.137 71.2438 457.005 71.1558C456.873 71.0733 456.774 70.9743 456.697 70.8479C456.62 70.7269 456.576 70.5729 456.576 70.3859C456.576 70.2484 456.603 70.1164 456.658 69.9899C456.713 69.8579 456.79 69.7479 456.889 69.6489C456.988 69.55 457.115 69.473 457.269 69.418C457.423 69.363 457.588 69.3355 457.791 69.3355C458.16 69.3355 458.501 69.396 458.809 69.528C458.831 69.9624 458.847 70.2099 458.847 70.2484C458.853 70.3749 458.897 70.4409 459.007 70.4409H459.194V69.3245C458.704 69.1155 458.242 69.011 457.791 69.011C457.538 69.011 457.313 69.0495 457.115 69.1265C456.911 69.2035 456.752 69.3025 456.62 69.4345C456.488 69.5665 456.383 69.7094 456.312 69.8799C456.24 70.0504 456.213 70.2264 456.213 70.4134C456.213 70.6444 456.251 70.8424 456.328 70.9963C456.405 71.1503 456.51 71.2713 456.642 71.3813C456.774 71.4913 456.911 71.5683 457.076 71.6343C457.236 71.7058 457.412 71.7663 457.582 71.8213C457.753 71.8763 457.912 71.9258 458.083 71.9808C458.242 72.0358 458.391 72.1128 458.523 72.1952C458.655 72.2832 458.754 72.3822 458.831 72.5032C458.908 72.6297 458.946 72.7892 458.946 72.9817C458.946 73.1577 458.913 73.3282 458.853 73.4821C458.792 73.6361 458.704 73.7681 458.589 73.8836C458.473 73.9991 458.33 74.0926 458.16 74.1531C457.989 74.2246 457.797 74.2466 457.582 74.2466C457.153 74.2466 456.79 74.1751 456.499 74.0376C456.488 73.9276 456.488 73.8121 456.482 73.6911C456.471 73.5701 456.471 73.4656 456.466 73.3831C456.46 73.3007 456.46 73.2512 456.46 73.2457C456.449 73.1192 456.394 73.0587 456.29 73.0587H456.103V74.0761V74.1751V74.2741C456.576 74.4776 457.06 74.5766 457.566 74.5766C457.846 74.5766 458.088 74.5326 458.308 74.4446C458.523 74.3621 458.704 74.2356 458.853 74.0926C459.001 73.9441 459.122 73.7681 459.199 73.5701C459.276 73.3667 459.315 73.1522 459.315 72.9212C459.315 72.6957 459.276 72.5142 459.199 72.3657Z" fill="white"/>
</g>
<defs>
<clipPath id="clip0_2050_706">
<rect width="549" height="107" fill="white"/>
</clipPath>
</defs>
</svg>
