<svg width="84" height="108" viewBox="0 0 84 108" fill="none" xmlns="http://www.w3.org/2000/svg">
<path d="M0.855469 11.2702L19.3508 107.152L12.9691 42.9768L44.5094 40.9206L44.4507 30.1796L56.898 0.847656L45.0224 20.3853L0.855469 11.2702Z" fill="#E96D77"/>
<path d="M51.2908 59.0444L56.8987 0.855469L47.4 44.0193L26.0854 45.155L27.7917 67.3933L19.3516 107.152L32.4552 63.7894L51.2908 59.0444Z" fill="#E96D77"/>
<path d="M54.9979 72.775L55.5945 61.4146L38.2284 65.4955L38.1936 78.3166L19.3516 107.152L42.9136 77.1385L54.9979 72.775ZM58.1616 67.5713L74.291 62.4296L75.931 48.8097L58.6517 51.0866L58.1616 67.5713ZM65.0726 48.1261L77.0145 46.5861L78.7328 35.4159L69.9524 35.0105L56.8987 0.847656L66.0605 34.5029L65.0726 48.1261Z" fill="#E96D77"/>
<path d="M81.7473 33.7715L83.1123 23.4403L72.7398 20.5124L56.8984 0.847656L72.6387 25.2324L72.1801 32.8401L81.7473 33.7715Z" fill="#E96D77"/>
</svg>
