<svg width="549" height="107" viewBox="0 0 549 107" fill="none" xmlns="http://www.w3.org/2000/svg">
<g clip-path="url(#clip0_2051_717)">
<path d="M122.296 0C115.636 0 108.916 0 102.256 0V59.334C108.916 59.334 115.636 59.334 122.296 59.334C143.063 59.334 152.75 44.0767 152.387 29.001C152.084 14.4097 142.397 0 122.296 0ZM122.296 4.29869C139.43 4.29869 147.604 16.5893 147.846 29.001C148.088 41.7154 139.975 54.9142 122.296 54.9142H106.797V4.29869H122.296ZM182.659 59.9395C189.38 59.9395 196.645 57.2149 200.702 51.887L197.735 49.5257C194.647 53.6428 188.169 55.883 182.659 55.883C174.002 55.883 166.494 50.1917 165.646 40.3229H203.366C204.94 23.9758 194.466 16.7709 182.659 16.7709C170.914 16.7709 161.408 25.8527 161.408 38.3855C161.408 51.7054 170.914 59.9395 182.659 59.9395ZM165.646 36.6902C166.555 26.4581 174.002 20.5853 182.659 20.5853C192.77 20.5853 199.552 26.337 199.612 36.6902H165.646ZM227.705 59.334H232.246L249.804 17.4369H245.202L229.945 54.4904L214.688 17.4369H210.147L227.705 59.334ZM327.786 59.334V0H323.184V28.2139H285.404V0H280.803V59.334H285.404V32.3915H323.184V59.334H327.786ZM377.856 59.334V17.3764H373.739V40.6862C373.739 49.3441 367.685 55.8829 359.087 55.9435C350.006 56.004 344.133 50.9183 344.133 41.4733V17.3764H340.016V41.5338C340.016 53.1584 347.705 60 358.906 60C364.718 59.9395 370.591 57.5782 373.8 51.7659V59.334H377.856ZM407.705 20.7669C417.392 20.7669 424.839 27.9112 424.839 38.3249C424.839 48.7387 417.574 55.9435 407.705 55.9435C398.32 55.9435 390.571 50.0101 390.571 38.3855C390.571 26.6398 398.32 20.7669 407.705 20.7669ZM424.9 0V26.6398C421.509 19.8587 414.728 16.7709 407.523 16.7709C395.838 16.7709 386.514 24.5812 386.514 38.3855C386.514 52.3108 395.778 60 407.463 60C414.607 60 421.449 56.4279 424.9 50.0706V59.334H429.017V0H424.9ZM459.834 20.7669C469.521 20.7669 476.968 27.9112 476.968 38.3249C476.968 48.7387 469.703 55.9435 459.834 55.9435C450.45 55.9435 442.7 50.0101 442.7 38.3855C442.7 26.6398 450.45 20.7669 459.834 20.7669ZM477.029 0V26.6398C473.638 19.8587 466.857 16.7709 459.652 16.7709C447.967 16.7709 438.643 24.5812 438.643 38.3855C438.643 52.3108 447.907 60 459.592 60C466.736 60 473.578 56.4279 477.029 50.0706V59.334H481.146V0H477.029ZM493.073 0V59.334H497.251V0H493.073ZM527.765 59.9395C534.425 59.9395 541.751 57.2149 545.808 51.887L542.841 49.5257C539.693 53.6428 533.275 55.883 527.765 55.883C519.108 55.883 511.539 50.1917 510.692 40.3229H548.411C550.046 23.9758 539.511 16.7709 527.765 16.7709C515.959 16.7709 506.454 25.8527 506.454 38.3855C506.454 51.7054 515.959 59.9395 527.765 59.9395ZM510.692 36.6902C511.661 26.4581 519.108 20.5853 527.765 20.5853C537.816 20.5853 544.597 26.337 544.718 36.6902H510.692Z" fill="white"/>
<path d="M0.855469 11.2702L19.3508 107.152L12.9691 42.9768L44.5094 40.9206L44.4507 30.1796L56.898 0.847656L45.0224 20.3853L0.855469 11.2702Z" fill="#E96D77"/>
<path d="M51.2908 59.0444L56.8987 0.855469L47.4 44.0193L26.0854 45.155L27.7917 67.3933L19.3516 107.152L32.4552 63.7894L51.2908 59.0444Z" fill="#E96D77"/>
<path d="M54.9979 72.775L55.5945 61.4146L38.2284 65.4955L38.1936 78.3166L19.3516 107.152L42.9136 77.1385L54.9979 72.775ZM58.1616 67.5713L74.291 62.4296L75.931 48.8097L58.6517 51.0866L58.1616 67.5713ZM65.0726 48.1261L77.0145 46.5861L78.7328 35.4159L69.9524 35.0105L56.8987 0.847656L66.0605 34.5029L65.0726 48.1261Z" fill="#E96D77"/>
<path d="M81.7473 33.7715L83.1123 23.4403L72.7398 20.5124L56.8984 0.847656L72.6387 25.2324L72.1801 32.8401L81.7473 33.7715Z" fill="#E96D77"/>
</g>
<defs>
<clipPath id="clip0_2051_717">
<rect width="549" height="107" fill="white"/>
</clipPath>
</defs>
</svg>
